/* XPM */
static char * toolnote_xpm[] = {
/* width height ncolors chars_per_pixel */
"13 7 4 1"
/* colors */
"       c #FFFFFFFFFFFF",
".      c #000000000000",
"",
"",
"             ",
"             ",
".   ...  ... ",
".  .XXX..GGG.",
"....XXX..GGG.",
".  .XXX..GGG.",
".   ...  ... ";
