/* XPM */
static char * toolnote_xpm[] = {
/* width height ncolors chars_per_pixel */
"7 13 4 1"
/* colors */
"       c #FFFFFFFFFFFF",
".      c #000000000000",
"",
"",
" ..... ",
" .GGG. ",
" .GGG. ",
" .GGG. ",
" ..... ",
" ..... ",
" .XXX. ",
" .XXX. ",
" .XXX. ",
" ..... ",
"   .   ",
"   .   ",
" ..... ";
